<svg width="1280" height="667" viewBox="0 0 1280 667" fill="none" xmlns="http://www.w3.org/2000/svg">
<path fill-rule="evenodd" clip-rule="evenodd" d="M0 667L26.5213 612.427C53.0425 554.823 106.085 445.677 160.523 415.359C213.566 388.073 266.609 445.677 319.651 515.409C372.694 582.109 427.132 667 480.174 612.427C533.217 554.823 603.562 370.859 658 289C711.043 204.109 769.957 251.127 823 239C876.043 223.841 915.957 153 969 153C1022.04 153 1087.96 218.127 1141 206C1195.44 190.841 1226.96 117.414 1253.48 78L1280 0H1253.48C1226.96 0 1173.91 0 1119.48 0C1066.43 0 1013.39 0 960.349 0C907.306 0 852.868 0 799.826 0C746.783 0 693.74 0 640.698 0C586.26 0 533.217 0 480.174 0C427.132 0 372.694 0 319.651 0C266.609 0 213.566 0 160.523 0C106.085 0 53.0425 0 26.5213 0H0V667Z" fill="url(#paint0_linear_59_2)"/>
<defs>
<linearGradient id="paint0_linear_59_2" x1="109" y1="658" x2="621" y2="8.99997" gradientUnits="userSpaceOnUse">
<stop stop-color="#782116"/>
<stop offset="1" stop-color="#541D16"/>
</linearGradient>
</defs>
</svg>
